<svg xmlns="http://www.w3.org/2000/svg" fill="none" viewBox="0 0 41 41">
  <path fill="#B38CFC" d="M34.83 31.055a19.535 19.535 0 01-1.934 3.48c-1.017 1.452-1.852 2.456-2.492 3.015-.995.913-2.063 1.382-3.205 1.409-.819 0-1.807-.233-2.959-.707-1.155-.471-2.216-.702-3.188-.702-1.017 0-2.108.23-3.276.702-1.167.474-2.11.722-2.832.745-1.093.047-2.186-.434-3.275-1.447-.695-.606-1.564-1.648-2.608-3.122-1.117-1.57-2.036-3.398-2.756-5.476-.77-2.248-1.157-4.422-1.157-6.528 0-2.412.52-4.493 1.564-6.236a9.2 9.2 0 013.277-3.316 8.808 8.808 0 014.432-1.254c.872 0 2.014.269 3.429.8 1.415.53 2.324.799 2.72.799.299 0 1.305-.317 3.017-.944 1.615-.581 2.98-.822 4.097-.727 3.03.244 5.305 1.438 6.818 3.59-2.708 1.641-4.047 3.939-4.02 6.888.022 2.297.857 4.209 2.494 5.726a8.2 8.2 0 002.49 1.634c-.2.582-.413 1.137-.636 1.67zM27.884 3.722c0 1.799-.659 3.48-1.968 5.036-1.583 1.849-3.496 2.919-5.57 2.75a5.588 5.588 0 01-.04-.682c0-1.73.75-3.578 2.09-5.091.666-.765 1.515-1.404 2.543-1.911 1.027-.5 1.996-.777 2.91-.824.024.242.035.483.035.722z"></path>
</svg> 