<svg width="42" height="41" viewBox="0 0 42 41" fill="none" xmlns="http://www.w3.org/2000/svg">
    <g filter="url(#filter0_d_985_875)">
        <path d="M28.8214 3.39282H9.17857C8.46841 3.3936 7.78756 3.67606 7.2854 4.17822C6.78324 4.68038 6.50078 5.36123 6.5 6.07139V16.7857C6.50078 17.4958 6.78324 18.1767 7.2854 18.6789C7.78756 19.181 8.46841 19.4635 9.17857 19.4643H18.1071V23.5588L16.9527 22.4044C16.7843 22.2418 16.5587 22.1518 16.3246 22.1538C16.0905 22.1559 15.8666 22.2498 15.7011 22.4153C15.5355 22.5808 15.4416 22.8048 15.4396 23.0389C15.4375 23.273 15.5275 23.4985 15.6902 23.6669L18.3688 26.3455C18.3766 26.3534 18.3875 26.3558 18.3955 26.3634C18.4717 26.4374 18.5607 26.4969 18.6581 26.5391L18.6609 26.5396C18.7684 26.5842 18.8836 26.6071 19 26.6071C19.2367 26.6069 19.4637 26.5128 19.6313 26.3455L22.3098 23.6669C22.4725 23.4985 22.5625 23.273 22.5604 23.0389C22.5584 22.8048 22.4645 22.5808 22.2989 22.4153C22.1334 22.2498 21.9095 22.1559 21.6754 22.1538C21.4413 22.1518 21.2157 22.2418 21.0473 22.4044L19.8929 23.5588V19.4643H28.8214C29.5316 19.4635 30.2124 19.181 30.7146 18.6789C31.2168 18.1767 31.4992 17.4958 31.5 16.7857V6.07139C31.4992 5.36123 31.2168 4.68038 30.7146 4.17822C30.2124 3.67606 29.5316 3.3936 28.8214 3.39282V3.39282ZM11.8571 7.41068H10.0714C9.95303 7.41068 9.83948 7.36364 9.75576 7.27992C9.67203 7.1962 9.625 7.08265 9.625 6.96425C9.625 6.84585 9.67203 6.7323 9.75576 6.64858C9.83948 6.56486 9.95303 6.51782 10.0714 6.51782H11.8571C11.9755 6.51782 12.0891 6.56486 12.1728 6.64858C12.2565 6.7323 12.3036 6.84585 12.3036 6.96425C12.3036 7.08265 12.2565 7.1962 12.1728 7.27992C12.0891 7.36364 11.9755 7.41068 11.8571 7.41068ZM19 15.4464C17.9953 15.3828 17.0563 14.9249 16.3874 14.1724C15.7186 13.42 15.374 12.4338 15.4286 11.4285C15.374 10.4233 15.7186 9.4371 16.3874 8.68463C17.0563 7.93217 17.9953 7.47431 19 7.41068C20.0047 7.47431 20.9437 7.93217 21.6126 8.68463C22.2814 9.4371 22.626 10.4233 22.5714 11.4285C22.626 12.4338 22.2814 13.42 21.6126 14.1724C20.9437 14.9249 20.0047 15.3828 19 15.4464ZM27.817 16.3393H25.808C25.6896 16.3393 25.5761 16.2922 25.4924 16.2085C25.4086 16.1248 25.3616 16.0112 25.3616 15.8928C25.3616 15.7744 25.4086 15.6609 25.4924 15.5771C25.5761 15.4934 25.6896 15.4464 25.808 15.4464H27.817C27.9354 15.4464 28.0489 15.4934 28.1326 15.5771C28.2164 15.6609 28.2634 15.7744 28.2634 15.8928C28.2634 16.0112 28.2164 16.1248 28.1326 16.2085C28.0489 16.2922 27.9354 16.3393 27.817 16.3393Z" fill="#04000C"></path>
    </g>
    <defs>
        <filter id="filter0_d_985_875" x="-2" y="-2" width="46" height="46" filterUnits="userSpaceOnUse" color-interpolation-filters="sRGB">
            <feFlood flood-opacity="0" result="BackgroundImageFix"></feFlood>
            <feColorMatrix in="SourceAlpha" type="matrix" values="0 0 0 0 0 0 0 0 0 0 0 0 0 0 0 0 0 0 127 0" result="hardAlpha"></feColorMatrix>
            <feOffset dx="2" dy="6"></feOffset>
            <feGaussianBlur stdDeviation="4"></feGaussianBlur>
            <feColorMatrix type="matrix" values="0 0 0 0 0.323438 0 0 0 0 0.337833 0 0 0 0 0.375 0 0 0 0.15 0"></feColorMatrix>
            <feBlend mode="normal" in2="BackgroundImageFix" result="effect1_dropShadow_985_875"></feBlend>
            <feBlend mode="normal" in="SourceGraphic" in2="effect1_dropShadow_985_875" result="shape"></feBlend>
        </filter>
    </defs>
</svg>