<svg width="44" height="40" viewBox="0 0 44 40" fill="none" xmlns="http://www.w3.org/2000/svg">
    <g filter="url(#filter0_d_985_892)">
        <path d="M23.2431 4.26355C22.7894 4.26664 22.3364 4.2984 21.8868 4.35864C23.9023 5.31745 25.6047 6.82794 26.7967 8.71494C27.9886 10.6019 28.6213 12.7882 28.6213 15.0201C28.6213 17.252 27.9886 19.4383 26.7967 21.3253C25.6047 23.2123 23.9023 24.7227 21.8868 25.6816C23.3446 25.8676 24.8251 25.7528 26.2368 25.3442C27.6485 24.9357 28.9615 24.2421 30.0946 23.3062C31.2278 22.3704 32.1571 21.2122 32.8251 19.9031C33.4931 18.5941 33.8856 17.162 33.9785 15.6953C34.0714 14.2286 33.8626 12.7585 33.3651 11.3756C32.8675 9.99275 32.0918 8.72658 31.0857 7.65527C30.0797 6.58396 28.8647 5.73027 27.5158 5.14691C26.1669 4.56355 24.7127 4.26291 23.2431 4.26355V4.26355Z" fill="#04000C"></path>
        <path fill-rule="evenodd" clip-rule="evenodd" d="M10.7805 6.04486C12.5494 4.86292 14.6291 4.23206 16.7566 4.23206C19.6084 4.2353 22.3425 5.36962 24.359 7.38616C26.3755 9.4027 27.5099 12.1368 27.5131 14.9886C27.5131 17.116 26.8822 19.1957 25.7003 20.9646C24.5184 22.7335 22.8384 24.1122 20.8729 24.9264C18.9074 25.7405 16.7446 25.9535 14.6581 25.5385C12.5715 25.1234 10.6549 24.099 9.15052 22.5946C7.64619 21.0903 6.62173 19.1737 6.20669 17.0871C5.79164 15.0005 6.00466 12.8378 6.8188 10.8723C7.63294 8.90675 9.01163 7.22681 10.7805 6.04486ZM13.9587 11.6004H15.3431L16.8727 14.0883H18.2764V11.6004H19.5543V14.0883H20.2707V14.7854H19.5543V15.2016H20.261V15.8987H19.5543V18.377H18.1796L16.65 15.8987H15.2366V18.377H13.9587V15.8987H13.2423V15.2016H13.9587V14.7854H13.252V14.0883H13.9587V11.6004ZM15.2366 14.7854V15.2016H16.2241L15.9627 14.7854H15.2366ZM15.2366 13.6043V14.0883H15.5367L15.2366 13.6043ZM18.2764 14.7854H17.2986L17.5503 15.2016H18.2764V14.7854ZM18.2764 15.8987H17.9763L18.2764 16.3827V15.8987Z" fill="#04000C"></path>
    </g>
    <defs>
        <filter id="filter0_d_985_892" x="-1" y="-2" width="46" height="46" filterUnits="userSpaceOnUse" color-interpolation-filters="sRGB">
            <feFlood flood-opacity="0" result="BackgroundImageFix"></feFlood>
            <feColorMatrix in="SourceAlpha" type="matrix" values="0 0 0 0 0 0 0 0 0 0 0 0 0 0 0 0 0 0 127 0" result="hardAlpha"></feColorMatrix>
            <feOffset dx="2" dy="6"></feOffset>
            <feGaussianBlur stdDeviation="4"></feGaussianBlur>
            <feColorMatrix type="matrix" values="0 0 0 0 0.323438 0 0 0 0 0.337833 0 0 0 0 0.375 0 0 0 0.15 0"></feColorMatrix>
            <feBlend mode="normal" in2="BackgroundImageFix" result="effect1_dropShadow_985_892"></feBlend>
            <feBlend mode="normal" in="SourceGraphic" in2="effect1_dropShadow_985_892" result="shape"></feBlend>
        </filter>
    </defs>
</svg>