<svg xmlns="http://www.w3.org/2000/svg" width="110px" fill="none" viewBox="-29 -30 88 88">
    <path d="M7.22202 3.35942C9.52415 1.82119 12.2307 1.00011 14.9994 1C18.7113 1.00438 22.2698 2.48083 24.8945 5.1055C27.519 7.73004 28.9955 11.2884 29 15C29 17.7689 28.1789 20.4757 26.6406 22.778C25.1022 25.0803 22.9157 26.8747 20.3576 27.9343C17.7994 28.9939 14.9845 29.2712 12.2687 28.731C9.55301 28.1908 7.05845 26.8574 5.10051 24.8995C3.14258 22.9416 1.80921 20.447 1.26901 17.7313C0.72882 15.0155 1.00607 12.2006 2.06569 9.64243C3.12532 7.08426 4.91973 4.89776 7.22202 3.35942Z" fill="white" stroke="#B38CFC" stroke-width="2"></path>
    <path d="M18.3464 15.2139C19.1598 15.0049 19.7627 14.4511 19.8995 13.3355C20.089 11.8111 18.9123 11.0235 17.3176 10.5184L17.7199 8.71444C17.7216 8.70875 17.7257 8.70444 17.727 8.69847C17.7578 8.56087 17.6711 8.42463 17.5336 8.39369L16.7743 8.22402C16.7083 8.20933 16.6391 8.22144 16.5821 8.2577C16.525 8.29395 16.4847 8.35138 16.4699 8.41736L16.4642 8.41607L16.0704 10.183C15.739 10.109 15.399 10.0399 15.0613 9.97174L15.4536 8.21327C15.4559 8.20583 15.4612 8.20011 15.4629 8.19234C15.4937 8.05474 15.407 7.91851 15.2695 7.88756L14.5102 7.7179C14.4442 7.70321 14.3751 7.71532 14.318 7.75157C14.2609 7.78783 14.2206 7.84525 14.2058 7.91124L14.2059 7.91188L14.1997 7.9105L13.7933 9.73125C13.5192 9.67587 13.2501 9.6218 12.9889 9.56342L12.9901 9.5568L11.2525 9.16852L11.2519 9.17111C11.2192 9.16378 11.1854 9.16296 11.1523 9.16871C11.1193 9.17447 11.0877 9.18668 11.0594 9.20464C11.0311 9.22261 11.0066 9.24598 10.9874 9.27343C10.9681 9.30087 10.9544 9.33184 10.9471 9.36456L10.7591 10.2061C10.7284 10.3437 10.815 10.4801 10.9526 10.5109L10.9536 10.5109L10.9527 10.5147C10.9527 10.5147 11.8871 10.7044 11.8679 10.7175C12.378 10.8317 12.4782 11.165 12.4695 11.4313L11.9435 13.7898L11.9417 13.7988L11.2046 17.102C11.1464 17.2576 10.9948 17.4928 10.6382 17.4137C10.6512 17.4314 9.72245 17.2089 9.72245 17.2089L9.72198 17.21C9.72039 17.2097 9.71941 17.2084 9.71782 17.208C9.59814 17.1813 9.48373 17.2461 9.4345 17.3532L9.42448 17.3503L8.96507 18.3284L8.97023 18.3306C8.96719 18.3395 8.96103 18.3465 8.95889 18.356C8.92934 18.4883 9.00966 18.6172 9.13807 18.6545L9.13663 18.6581L10.7762 19.0239C11.0813 19.0921 11.3805 19.1641 11.6748 19.2318L11.264 21.0765L11.2646 21.0766C11.2339 21.214 11.3205 21.3504 11.4581 21.3812L12.2174 21.5508C12.2835 21.5655 12.3526 21.5533 12.4097 21.517C12.4667 21.4807 12.5071 21.4233 12.5218 21.3573L12.5222 21.3574L12.9285 19.5353C13.2724 19.6195 13.6062 19.6968 13.933 19.769L13.5282 21.5824L13.5288 21.5825C13.4983 21.72 13.5847 21.8563 13.7221 21.8871L14.4814 22.0567C14.5474 22.0714 14.6165 22.0592 14.6736 22.0229C14.7307 21.9866 14.771 21.9292 14.7857 21.8632L14.7858 21.863L14.7874 21.8633L15.1984 20.0219C17.3436 20.3726 18.9453 20.1698 19.5729 18.2216C20.0785 16.6534 19.4844 15.7705 18.3464 15.2139V15.2139ZM14.7603 11.4594C15.4715 11.6179 17.7561 11.89 17.4252 13.3745C17.1073 14.798 14.9102 14.1335 14.199 13.975L14.7603 11.4594ZM13.297 18.0183L13.9162 15.2444C14.7701 15.4352 17.5025 15.7869 17.1385 17.4186C16.7901 18.9832 14.1512 18.2077 13.297 18.0183V18.0183Z" fill="#E8DDFE"></path>
</svg>